<svg width="436" height="442" viewBox="0 0 436 442" fill="none"
    xmlns="http://www.w3.org/2000/svg">
    <g clip-path="url(#clip0_20_4234)">
        <path d="M335.09 300.003L341.364 283.796C341.364 283.796 341.445 283.706 341.355 283.625C341.59 283.184 341.554 282.499 341.193 282.175L293.092 238.864L322.699 107.798L329.675 100.051L329.585 99.9702C331.441 97.7272 331.099 94.4837 328.938 92.5371C326.776 90.5906 323.514 90.5899 321.297 92.5084L321.207 92.4273L320.721 92.9678L314.07 100.354L186.989 143.491L139.517 100.748C139.067 100.342 138.292 100.297 137.805 100.837L5.43924 247.845C5.11482 248.205 5.06061 248.809 5.33981 249.223L5.3488 249.395L12.5712 264.379C12.6612 264.46 12.6702 264.632 12.8504 264.794L207.509 440.065C207.96 440.471 208.735 440.516 209.221 439.976L334.856 300.445C334.937 300.355 335.099 300.174 335.09 300.003ZM322.522 94.5899C323.82 93.1487 325.964 93.1221 327.315 94.3387C328.757 95.6364 328.783 97.7807 327.567 99.1319C326.269 100.573 324.125 100.6 322.773 99.3831C321.332 98.0854 321.225 96.0312 322.522 94.5899ZM319.44 98.0129C319.674 99.2022 320.251 100.374 321.151 101.185C322.142 102.077 323.277 102.446 324.485 102.555L317.104 110.752C316.131 111.833 314.338 112.013 313.167 110.958L312.176 110.066C311.095 109.093 310.915 107.3 311.969 106.129L319.35 97.9318L319.44 98.0129ZM310.907 103.867L310.258 104.588C308.392 106.66 308.563 109.912 310.635 111.778L311.626 112.67C313.697 114.535 316.95 114.365 318.815 112.293L319.545 111.482L291.029 237.169L188.97 145.275L310.907 103.867ZM138.787 103.189L184.457 144.31L179.059 146.138C178.78 145.723 178.591 145.39 178.231 145.066C176.069 143.119 172.645 143.299 170.699 145.46C168.752 147.622 168.932 151.046 171.093 152.993C173.255 154.939 176.679 154.76 178.626 152.598C179.761 151.337 180.194 149.769 179.942 148.237L186.519 146.005L290.56 239.683L289.036 246.629C287.576 246.62 286.062 247.214 285.008 248.385C283.061 250.547 283.241 253.97 285.403 255.917C287.564 257.864 290.988 257.684 292.935 255.522C294.881 253.36 294.702 249.937 292.54 247.99C292.18 247.666 291.648 247.35 291.207 247.116L292.541 241.467L338.752 283.075L317.177 307.036L117.294 127.06L138.787 103.189ZM173.644 149.254C173.743 149.506 173.833 149.588 174.013 149.75C174.283 149.993 174.806 150.137 175.139 149.948L177.5 149.138C177.536 149.823 177.23 150.525 176.743 151.066C175.607 152.327 173.724 152.426 172.463 151.29C171.202 150.155 171.103 148.272 172.239 147.01C173.374 145.749 175.257 145.651 176.519 146.786L176.609 146.867L174.329 147.587C173.833 147.957 173.527 148.659 173.644 149.254ZM290.26 251.972L290.738 249.629C290.828 249.711 290.918 249.792 291.008 249.873C292.269 251.008 292.368 252.891 291.232 254.152C290.097 255.414 288.214 255.512 286.953 254.377C285.692 253.241 285.593 251.358 286.728 250.097C287.215 249.557 287.801 249.268 288.395 249.151L287.827 251.413C287.764 251.845 287.872 252.269 288.142 252.512C288.322 252.674 288.413 252.755 288.674 252.827C289.458 253.044 290.034 252.584 290.26 251.972ZM185.088 302.114L189.838 296.115L235.429 283.34L244.437 291.451L219.132 319.555L224.266 324.178L217.778 331.385L212.643 326.762L203.884 336.49L194.966 328.46L203.725 318.732L185.169 302.024L185.088 302.114ZM190.671 275.987L183.209 284.275C177.613 290.49 172.053 294.129 166.44 295.109C160.827 296.09 155.583 294.305 150.629 289.844C145.675 285.383 143.441 280.437 143.749 274.842C144.057 269.247 146.923 263.346 152.357 257.311L159.819 249.024C165.496 242.718 171.146 239.161 176.678 238.27C182.21 237.379 187.454 239.164 192.318 243.544C197.272 248.005 199.505 252.952 199.198 258.547C198.971 264.051 196.186 269.862 190.671 275.987ZM102.667 227.901L107.416 221.902L153.008 209.128L162.015 217.238L136.71 245.343L141.845 249.966L135.356 257.172L130.222 252.549L121.462 262.277L112.544 254.248L121.304 244.519L102.748 227.811L102.667 227.901ZM27.3463 226.957L227.23 406.932L207.845 428.461L7.9618 248.485L27.3463 226.957ZM208.321 437.534L14.6527 263.154L9.94279 253.531L207.214 431.155C207.664 431.56 208.439 431.606 208.926 431.065L228.635 409.176L226.489 417.356L208.321 437.534ZM316.842 317.009L318.663 309.189L336.993 288.832L332.982 299.084L316.842 317.009Z" fill="black"/>
        <path d="M224.399 295.591L222.876 296.014L200.125 302.442L210.124 311.445L224.399 295.591Z" fill="black"/>
        <path d="M142.067 221.459L140.544 221.883L117.794 228.31L127.792 237.313L142.067 221.459Z" fill="black"/>
        <path d="M185.91 250.66C183.839 248.795 181.487 248.146 179.036 248.875C176.586 249.604 173.774 251.64 170.521 255.072L160.626 266.061C157.301 269.754 155.408 272.943 154.777 275.637C154.145 278.331 154.956 280.692 157.118 282.638C159.279 284.585 161.712 285.144 164.244 284.325C166.776 283.505 169.578 281.298 172.831 277.867L182.483 267.147C185.89 263.364 187.782 260.175 188.332 257.571C188.793 254.887 188.072 252.607 185.91 250.66Z" fill="black"/>
        <path d="M320.534 282.657C318.733 281.035 315.994 281.178 314.372 282.98C312.75 284.781 312.893 287.52 314.695 289.142C316.496 290.764 319.235 290.621 320.857 288.819C322.479 287.018 322.336 284.279 320.534 282.657ZM316.317 287.341C315.506 286.611 315.443 285.412 316.173 284.602C316.903 283.791 318.101 283.728 318.912 284.458C319.723 285.188 319.786 286.386 319.056 287.197C318.326 288.008 317.127 288.071 316.317 287.341Z" fill="black"/>
        <path d="M310.626 273.735C308.824 272.113 306.085 272.256 304.463 274.058C302.841 275.859 302.984 278.598 304.786 280.22C306.587 281.843 309.326 281.699 310.949 279.897C312.571 278.096 312.427 275.357 310.626 273.735ZM306.408 278.419C305.597 277.689 305.535 276.491 306.265 275.68C306.994 274.869 308.193 274.806 309.003 275.536C309.814 276.266 309.877 277.465 309.147 278.275C308.417 279.086 307.219 279.149 306.408 278.419Z" fill="black"/>
        <path d="M148.548 125.679L139.811 117.812C139.36 117.407 138.585 117.361 138.099 117.902C137.693 118.352 137.648 119.127 138.189 119.614L146.926 127.481C147.377 127.886 148.151 127.932 148.638 127.391C149.035 126.77 148.999 126.085 148.548 125.679Z" fill="black"/>
        <path d="M145.385 129.193L136.648 121.325C136.197 120.92 135.422 120.874 134.936 121.415C134.53 121.865 134.485 122.64 135.025 123.127L143.763 130.994C144.213 131.4 144.988 131.445 145.475 130.904C145.871 130.283 145.836 129.598 145.385 129.193Z" fill="black"/>
        <path d="M142.222 132.705L133.485 124.838C133.034 124.432 132.259 124.387 131.773 124.928C131.286 125.468 131.322 126.153 131.862 126.639L140.6 134.507C141.05 134.912 141.825 134.958 142.312 134.417C142.798 133.877 142.672 133.111 142.222 132.705Z" fill="black"/>
    </g>
    <defs>
        <clipPath id="clip0_20_4234">
            <rect width="280" height="340" fill="white" transform="translate(227.712 0.98584) rotate(42)"/>
        </clipPath>
    </defs>
</svg>
