<svg width="414" height="376" viewBox="0 0 414 376" fill="none"
    xmlns="http://www.w3.org/2000/svg">
    <g clip-path="url(#clip0_20_4234)">
        <path d="M271.103 313.866L284.448 302.733C284.448 302.733 284.563 302.694 284.523 302.579C284.942 302.307 285.243 301.69 285.085 301.232L264.014 240.03L353.455 139.755L363.311 136.362L363.272 136.247C365.983 135.185 367.257 132.183 366.31 129.432C365.363 126.682 362.51 125.1 359.641 125.703L359.602 125.588L358.914 125.825L349.516 129.061L217.456 105.174L196.661 44.775C196.464 44.202 195.808 43.7868 195.12 44.0235L8.07752 108.421C7.61908 108.579 7.27899 109.08 7.32221 109.578L7.24709 109.732L6.29867 126.339C6.33813 126.454 6.26298 126.608 6.34189 126.837L91.6129 374.509C91.8102 375.082 92.4659 375.497 93.1536 375.26L270.684 314.138C270.798 314.099 271.028 314.02 271.103 313.866ZM359.703 128.117C361.537 127.486 363.425 128.502 364.017 130.221C364.649 132.055 363.632 133.943 361.913 134.535C360.079 135.167 358.191 134.15 357.599 132.431C356.968 130.597 357.87 128.749 359.703 128.117ZM355.348 129.617C354.976 130.77 354.912 132.074 355.307 133.22C355.741 134.481 356.555 135.355 357.558 136.035L347.128 139.626C345.753 140.099 344.098 139.387 343.585 137.897L343.151 136.636C342.677 135.261 343.389 133.606 344.879 133.093L355.309 129.502L355.348 129.617ZM345.046 130.6L344.13 130.915C341.494 131.823 340.066 134.75 340.973 137.386L341.407 138.647C342.315 141.283 345.242 142.711 347.878 141.803L348.91 141.448L263.031 237.548L218.324 107.696L345.046 130.6ZM194.839 46.5562L214.844 104.663L209.238 103.645C209.195 103.147 209.191 102.764 209.033 102.306C208.086 99.5549 205.005 98.0519 202.254 98.9989C199.503 99.9459 198 103.027 198.947 105.778C199.894 108.529 202.976 110.032 205.726 109.085C207.331 108.532 208.469 107.371 208.992 105.909L215.827 107.145L261.402 239.519L256.701 244.855C255.429 244.14 253.817 243.926 252.327 244.438C249.577 245.386 248.074 248.467 249.021 251.218C249.968 253.968 253.049 255.471 255.8 254.524C258.551 253.577 260.054 250.496 259.107 247.745C258.949 247.287 258.637 246.753 258.364 246.334L262.27 242.041L282.513 300.836L252.027 311.332L164.467 57.0129L194.839 46.5562ZM202.991 103.745C202.955 104.014 202.994 104.128 203.073 104.357C203.192 104.701 203.579 105.081 203.962 105.077L206.42 105.513C206.119 106.129 205.51 106.595 204.823 106.832C203.218 107.384 201.523 106.558 200.971 104.953C200.418 103.348 201.245 101.654 202.85 101.101C204.454 100.549 206.149 101.376 206.701 102.98L206.741 103.095L204.398 102.619C203.785 102.702 203.177 103.168 202.991 103.745ZM255.182 250.122L256.735 248.305C256.775 248.42 256.814 248.534 256.854 248.649C257.406 250.253 256.58 251.948 254.975 252.501C253.37 253.053 251.676 252.226 251.123 250.622C250.571 249.017 251.398 247.323 253.002 246.77C253.69 246.533 254.342 246.565 254.918 246.751L253.325 248.454C253.06 248.801 252.95 249.224 253.068 249.568C253.147 249.797 253.186 249.912 253.38 250.101C253.96 250.671 254.687 250.548 255.182 250.122ZM138.887 242.985L145.95 240.041L192.018 250.973L195.964 262.434L160.206 274.745L162.455 281.278L153.286 284.434L151.037 277.902L138.659 282.163L134.753 270.817L147.131 266.555L139.002 242.946L138.887 242.985ZM156.437 222.842L145.893 226.472C137.985 229.194 131.358 229.681 125.974 227.818C120.589 225.954 116.868 221.85 114.698 215.547C112.528 209.243 112.973 203.834 115.955 199.09C118.936 194.346 124.304 190.575 131.983 187.931L142.527 184.301C150.55 181.539 157.216 181.166 162.486 183.07C167.756 184.973 171.477 189.076 173.608 195.265C175.778 201.569 175.333 206.978 172.351 211.722C169.484 216.427 164.231 220.158 156.437 222.842ZM102.782 138.117L109.845 135.173L155.913 146.105L159.859 157.566L124.101 169.877L126.35 176.41L117.181 179.567L114.932 173.034L102.554 177.296L98.6477 165.949L111.026 161.688L102.897 138.078L102.782 138.117ZM37.365 100.773L124.925 355.092L97.5329 364.522L9.97333 110.204L37.365 100.773ZM93.5499 372.688L8.713 126.277L9.2595 115.577L95.6748 366.572C95.8721 367.145 96.5278 367.561 97.2155 367.324L125.066 357.735L119.222 363.849L93.5499 372.688ZM246.898 319.892L252.282 313.936L278.184 305.018L269.705 312.04L246.898 319.892Z" fill="black"/>
        <path d="M176.431 256.339L174.894 255.971L151.88 250.562L156.26 263.284L176.431 256.339Z" fill="black"/>
        <path d="M140.366 151.586L138.829 151.218L115.814 145.809L120.194 158.531L140.366 151.586Z" fill="black"/>
        <path d="M164.553 198.382C163.646 195.746 161.904 194.038 159.407 193.488C156.91 192.937 153.464 193.354 148.955 194.779L134.973 199.593C130.274 201.211 127.072 203.082 125.214 205.132C123.356 207.182 122.92 209.639 123.867 212.39C124.814 215.141 126.67 216.809 129.282 217.32C131.894 217.831 135.415 217.26 139.924 215.835L153.562 211.14C158.376 209.483 161.577 207.611 163.321 205.601C165.025 203.476 165.5 201.133 164.553 198.382Z" fill="black"/>
        <path d="M266.783 291.637C265.994 289.345 263.529 288.143 261.236 288.932C258.944 289.721 257.742 292.186 258.531 294.478C259.32 296.77 261.785 297.973 264.077 297.184C266.37 296.394 267.572 293.929 266.783 291.637ZM260.823 293.689C260.468 292.658 260.994 291.579 262.026 291.224C263.057 290.869 264.136 291.395 264.491 292.426C264.846 293.458 264.32 294.536 263.288 294.891C262.257 295.247 261.178 294.721 260.823 293.689Z" fill="black"/>
        <path d="M262.442 279.03C261.653 276.738 259.188 275.535 256.896 276.324C254.604 277.114 253.401 279.579 254.19 281.871C254.98 284.163 257.445 285.365 259.737 284.576C262.029 283.787 263.231 281.322 262.442 279.03ZM256.483 281.082C256.127 280.05 256.653 278.972 257.685 278.617C258.716 278.261 259.795 278.787 260.15 279.819C260.505 280.85 259.979 281.929 258.948 282.284C257.916 282.639 256.838 282.113 256.483 281.082Z" fill="black"/>
        <path d="M192.472 70.959L188.644 59.8419C188.447 59.2688 187.791 58.8536 187.104 59.0904C186.531 59.2877 186.115 59.9434 186.352 60.6311L190.18 71.7482C190.377 72.3213 191.033 72.7365 191.72 72.4997C192.369 72.1484 192.669 71.5321 192.472 70.959Z" fill="black"/>
        <path d="M188.002 72.4981L184.175 61.381C183.977 60.8079 183.322 60.3927 182.634 60.6295C182.061 60.8267 181.646 61.4825 181.882 62.1701L185.71 73.2873C185.907 73.8603 186.563 74.2755 187.251 74.0388C187.899 73.6874 188.199 73.0711 188.002 72.4981Z" fill="black"/>
        <path d="M183.532 74.0367L179.705 62.9195C179.508 62.3465 178.852 61.9313 178.164 62.168C177.477 62.4048 177.176 63.0211 177.413 63.7087L181.24 74.8258C181.438 75.3989 182.093 75.8141 182.781 75.5774C183.469 75.3406 183.73 74.6097 183.532 74.0367Z" fill="black"/>
    </g>
    <defs>
        <clipPath id="clip0_20_4234">
            <rect width="280" height="340" fill="white" transform="translate(322.165 0.283203) rotate(71.0019)"/>
        </clipPath>
    </defs>
</svg>
