<svg width="340" height="280" viewBox="0 0 340 280" fill="none"
    xmlns="http://www.w3.org/2000/svg">
    <g clip-path="url(#clip0_20_4234)">
        <path d="M189.637 279.878L205.879 273.697C205.879 273.697 206 273.697 206 273.575C206.485 273.454 206.97 272.969 206.97 272.484L206.97 207.757L324.182 142.06H334.606V141.939C337.515 141.818 339.697 139.393 339.697 136.484C339.697 133.575 337.515 131.151 334.606 130.787V130.666H333.879H323.94L206.849 65.0904V1.21163C206.849 0.605572 206.364 -0.000488281 205.637 -0.000488281L7.8184 -0.000488281C7.33355 -0.000488281 6.84868 0.363148 6.72746 0.847997L6.60628 0.969209L0.303235 16.3632C0.303235 16.4844 0.182016 16.6056 0.182016 16.848L0.182016 278.787C0.182016 279.394 0.666864 280 1.39414 280L189.152 280C189.273 280 189.515 280 189.637 279.878ZM333.879 133.09C335.818 133.09 337.273 134.666 337.273 136.484C337.273 138.424 335.697 139.878 333.879 139.878C331.94 139.878 330.485 138.303 330.485 136.484C330.485 134.545 331.94 133.09 333.879 133.09ZM329.273 133.09C328.546 134.06 328.061 135.272 328.061 136.484C328.061 137.818 328.546 138.909 329.273 139.878H318.243C316.788 139.878 315.455 138.666 315.455 137.09V135.757C315.455 134.303 316.667 132.969 318.243 132.969H329.273V133.09ZM319.212 130.666H318.243C315.455 130.666 313.152 132.969 313.152 135.757V137.09C313.152 139.878 315.455 142.181 318.243 142.181H319.334L206.849 205.09L206.849 67.7571L319.212 130.666ZM204.546 2.30254V63.7571L199.576 60.9692C199.697 60.4844 199.818 60.1207 199.818 59.6359C199.818 56.7268 197.394 54.3026 194.485 54.3026C191.576 54.3026 189.152 56.7268 189.152 59.6359C189.152 62.545 191.576 64.9692 194.485 64.9692C196.182 64.9692 197.637 64.242 198.606 63.0298L204.667 66.4238L204.667 206.424L198.485 209.939C197.515 208.848 196.061 208.121 194.485 208.121C191.576 208.121 189.152 210.545 189.152 213.454C189.152 216.363 191.576 218.787 194.485 218.787C197.394 218.787 199.818 216.363 199.818 213.454C199.818 212.969 199.697 212.363 199.576 211.878L204.667 209.09L204.667 271.272H172.424L172.424 2.30254L204.546 2.30254ZM193.637 59.0298C193.515 59.2723 193.515 59.3935 193.515 59.6359C193.515 59.9995 193.758 60.4844 194.121 60.6056L196.303 61.8177C195.818 62.3026 195.091 62.545 194.364 62.545C192.667 62.545 191.334 61.2116 191.334 59.5147C191.334 57.8177 192.667 56.4844 194.364 56.4844C196.061 56.4844 197.394 57.8177 197.394 59.5147V59.6359L195.334 58.4238C194.728 58.3026 194 58.545 193.637 59.0298ZM195.334 214.424L197.394 213.212C197.394 213.333 197.394 213.454 197.394 213.575C197.394 215.272 196.061 216.606 194.364 216.606C192.667 216.606 191.334 215.272 191.334 213.575C191.334 211.878 192.667 210.545 194.364 210.545C195.091 210.545 195.697 210.787 196.182 211.151L194.121 212.242C193.758 212.484 193.515 212.848 193.515 213.212C193.515 213.454 193.515 213.575 193.637 213.818C194 214.545 194.728 214.666 195.334 214.424ZM87.6972 169.818L95.3336 169.333L135.334 194.666V206.787H97.5154V213.697H87.8184V206.787L74.7275 206.787V194.787L87.8184 194.787V169.818H87.6972ZM110.849 156.484H99.6972C91.3336 156.484 84.9093 154.787 80.4245 151.272C75.9396 147.757 73.7578 142.666 73.7578 136C73.7578 129.333 75.9396 124.363 80.3033 120.848C84.6669 117.333 90.9699 115.515 99.0911 115.515H110.243C118.728 115.515 125.152 117.333 129.515 120.848C133.879 124.363 136.061 129.454 136.061 136C136.061 142.666 133.879 147.636 129.515 151.151C125.273 154.666 119.091 156.484 110.849 156.484ZM87.6972 58.9086L95.3336 58.4238L135.334 83.7571L135.334 95.8783L97.5154 95.8783V102.787H87.8184V95.8783H74.7275V83.8783H87.8184V58.9086H87.6972ZM38.0002 2.30254L38.0002 271.272H9.03053L9.03053 2.30254L38.0002 2.30254ZM2.60626 277.697L2.60626 17.0904L6.60628 7.15103L6.60628 272.606C6.60628 273.212 7.09113 273.818 7.8184 273.818H37.2729L29.7578 277.697H2.60626ZM164.788 277.697L171.818 273.818H199.212L188.909 277.697L164.788 277.697Z" fill="black"/>
        <path d="M118.849 194.666L117.515 193.818L97.5153 181.212V194.666H118.849Z" fill="black"/>
        <path d="M118.849 83.8784L117.515 83.0299L97.5153 70.4238V83.8784H118.849Z" fill="black"/>
        <path d="M126.485 135.999C126.485 133.212 125.394 131.03 123.212 129.696C121.031 128.363 117.637 127.636 112.909 127.515H98.1215C93.1518 127.515 89.5154 128.242 87.0912 129.575C84.6669 130.909 83.4548 133.09 83.4548 135.999C83.4548 138.909 84.6669 141.09 86.9699 142.424C89.273 143.757 92.7881 144.363 97.5154 144.484H111.94C117.031 144.484 120.667 143.757 122.97 142.424C125.273 140.969 126.485 138.909 126.485 135.999Z" fill="black"/>
        <path d="M192.788 257.454C192.788 255.03 190.849 253.09 188.424 253.09C186 253.09 184.061 255.03 184.061 257.454C184.061 259.878 186 261.818 188.424 261.818C190.849 261.818 192.788 259.878 192.788 257.454ZM186.485 257.454C186.485 256.363 187.334 255.515 188.424 255.515C189.515 255.515 190.364 256.363 190.364 257.454C190.364 258.545 189.515 259.393 188.424 259.393C187.334 259.393 186.485 258.545 186.485 257.454Z" fill="black"/>
        <path d="M192.788 244.121C192.788 241.697 190.849 239.757 188.424 239.757C186 239.757 184.061 241.697 184.061 244.121C184.061 246.545 186 248.485 188.424 248.485C190.849 248.485 192.788 246.545 192.788 244.121ZM186.485 244.121C186.485 243.03 187.334 242.182 188.424 242.182C189.515 242.182 190.364 243.03 190.364 244.121C190.364 245.212 189.515 246.06 188.424 246.06C187.334 246.06 186.485 245.212 186.485 244.121Z" fill="black"/>
        <path d="M194.364 24.6054V12.8479C194.364 12.2418 193.879 11.6357 193.152 11.6357C192.546 11.6357 191.94 12.1206 191.94 12.8479V24.6054C191.94 25.2115 192.424 25.8176 193.152 25.8176C193.879 25.6964 194.364 25.2115 194.364 24.6054Z" fill="black"/>
        <path d="M189.637 24.6054V12.8479C189.637 12.2418 189.152 11.6357 188.425 11.6357C187.819 11.6357 187.212 12.1206 187.212 12.8479V24.6054C187.212 25.2115 187.697 25.8176 188.425 25.8176C189.152 25.6964 189.637 25.2115 189.637 24.6054Z" fill="black"/>
        <path d="M184.909 24.6054V12.8479C184.909 12.2418 184.425 11.6357 183.697 11.6357C182.97 11.6357 182.485 12.1206 182.485 12.8479V24.6054C182.485 25.2115 182.97 25.8176 183.697 25.8176C184.425 25.8176 184.909 25.2115 184.909 24.6054Z" fill="black"/>
    </g>
    <defs>
        <clipPath id="clip0_20_4234">
            <rect width="280" height="340" fill="white" transform="translate(340 -0.000488281) rotate(90)"/>
        </clipPath>
    </defs>
</svg>
